<svg width="24" height="24" viewBox="0 0 24 24" fill="none" xmlns="http://www.w3.org/2000/svg">
<g clip-path="url(#clip0_61385:198)" filter="url(#filter0_d_61385:198)">
<path d="M11.999 0.166527C7.58202 0.166527 4.00002 3.76253 4.00002 8.19853C4.00002 11.7465 6.29202 14.7565 9.47202 15.8195C9.87202 15.8935 10.018 15.6455 10.018 15.4325C10.018 15.2415 10.011 14.7365 10.007 14.0665C7.78202 14.5515 7.31202 12.9895 7.31202 12.9895C6.94902 12.0615 6.42402 11.8145 6.42402 11.8145C5.69702 11.3165 6.47802 11.3265 6.47802 11.3265C7.28102 11.3835 7.70302 12.1545 7.70302 12.1545C8.41702 13.3815 9.57602 13.0275 10.032 12.8215C10.104 12.3025 10.311 11.9485 10.54 11.7475C8.76402 11.5445 6.89602 10.8555 6.89602 7.77853C6.89602 6.90153 7.20802 6.18453 7.72002 5.62253C7.63702 5.41953 7.36302 4.60253 7.79802 3.49753C7.79802 3.49753 8.47002 3.28153 9.99802 4.32053C10.636 4.14253 11.32 4.05353 12.001 4.05053C12.68 4.05453 13.365 4.14253 14.004 4.32153C15.531 3.28253 16.202 3.49853 16.202 3.49853C16.638 4.60453 16.364 5.42053 16.282 5.62353C16.795 6.18553 17.104 6.90253 17.104 7.77953C17.104 10.8645 15.234 11.5435 13.452 11.7425C13.739 11.9905 13.995 12.4805 13.995 13.2295C13.995 14.3035 13.985 15.1695 13.985 15.4325C13.985 15.6475 14.129 15.8975 14.535 15.8185C17.71 14.7545 20 11.7455 20 8.19853C20 3.76253 16.418 0.166527 11.999 0.166527Z" fill="#C4C4CC"/>
</g>
<defs>
<filter id="filter0_d_61385:198" x="1.52588e-05" y="0" width="24" height="24" filterUnits="userSpaceOnUse" color-interpolation-filters="sRGB">
<feFlood flood-opacity="0" result="BackgroundImageFix"/>
<feColorMatrix in="SourceAlpha" type="matrix" values="0 0 0 0 0 0 0 0 0 0 0 0 0 0 0 0 0 0 127 0" result="hardAlpha"/>
<feOffset dy="4"/>
<feGaussianBlur stdDeviation="2"/>
<feComposite in2="hardAlpha" operator="out"/>
<feColorMatrix type="matrix" values="0 0 0 0 0 0 0 0 0 0 0 0 0 0 0 0 0 0 0.25 0"/>
<feBlend mode="normal" in2="BackgroundImageFix" result="effect1_dropShadow_61385:198"/>
<feBlend mode="normal" in="SourceGraphic" in2="effect1_dropShadow_61385:198" result="shape"/>
</filter>
<clipPath id="clip0_61385:198">
<rect width="16" height="16" fill="white" transform="translate(4.00002)"/>
</clipPath>
</defs>
</svg>
